<svg width="20" height="20" viewBox="0 0 20 20" fill="none" xmlns="http://www.w3.org/2000/svg">
<path d="M10.875 8.15831L8.33334 6.24998V13.75L10.875 11.8416L13.3333 9.99998L10.875 8.15831ZM10.875 8.15831L8.33334 6.24998V13.75L10.875 11.8416L13.3333 9.99998L10.875 8.15831ZM10.875 8.15831L8.33334 6.24998V13.75L10.875 11.8416L13.3333 9.99998L10.875 8.15831ZM9.16667 3.39165V1.70831C7.49167 1.87498 5.96667 2.54165 4.73334 3.54998L5.91667 4.74165C6.85829 4.00655 7.98134 3.54006 9.16667 3.39165ZM4.74167 5.91665L3.55 4.73331C2.51235 5.99713 1.87159 7.53959 1.70834 9.16665H3.39167C3.54167 7.94998 4.025 6.84165 4.74167 5.91665ZM3.39167 10.8333H1.70834C1.875 12.5083 2.54167 14.0333 3.55 15.2666L4.74167 14.075C4.0053 13.1373 3.53856 12.0165 3.39167 10.8333ZM4.73334 16.45C5.99798 17.4863 7.54 18.1268 9.16667 18.2916V16.6083C7.98134 16.4599 6.85829 15.9934 5.91667 15.2583L4.73334 16.45ZM18.3333 9.99998C18.3333 14.3 15.0667 17.85 10.875 18.2916V16.6083C14.1417 16.175 16.6667 13.375 16.6667 9.99998C16.6667 6.62498 14.1417 3.82498 10.875 3.39165V1.70831C15.0667 2.14998 18.3333 5.69998 18.3333 9.99998Z" fill="#939393"/>
</svg>
